<svg xmlns="http://www.w3.org/2000/svg" viewBox="0 0 1024 1024">
  <rect width="1024" height="1024" fill="#000"/>
  <path fill="#fff" d="M607.84,446.92l-7.26-5.51L387.88,67.22,290.33,0c3.06,82.38,56.79,181.8,146.04,191.77l185.77,318.35,78.99-206.14c-60.18,18.86-91.46,82.84-93.31,142.93ZM538.64,312.99c50.71-52.14,81.39-137.26,47.34-206.16-56.09,51.26-90.08,135.19-47.34,206.16ZM798.93,132.5l-19.7-5.21-180.94,478.92c7.35-.73,20.12,3.68,24.22-3.9l176.41-469.81ZM308.38,291.95c41.91,60.27,134.13,85.04,195.25,38.42-36.68-59.27-135.64-53.31-195.25-38.42ZM330.95,619.99l32.31,311.46c-3.48,7.65-19.74,3.86-26.82,4.34l-67.38-567.66-5.07-11.48h-48.91l67.19,621.28c5.02,23.31,26.3,40.67,49.46,43.84,107.45-5.13,221.4,6.92,328.1.1,40.59-2.59,67.24-12.02,77.04-55.38l75.71-606.13-3.85-3.7h-45.15l-31.01,251.9c.4,3.76-4.77,11.44-8.12,11.44h-393.52ZM500.7,447.39c-33.04.88-67.6,8.86-96.01,25.89,49.67,48.38,139.89,65.19,192.58,12.02-26.63-30.51-56.9-38.96-96.57-37.91Z"/>
  <path fill="#fff" d="M330.95,619.99h393.52c3.35,0,8.52-7.69,8.12-11.44l31.01-251.9h45.15l3.85,3.7-75.71,606.13c-9.81,43.36-36.46,52.79-77.04,55.38-106.7,6.81-220.65-5.23-328.1-.1-23.17-3.17-44.44-20.53-49.46-43.84l-67.19-621.28h48.91l5.07,11.48,67.38,567.66c7.08-.48,23.34,3.31,26.82-4.34l-32.31-311.46Z"/>
  <path fill="#fff" d="M607.84,446.92c1.85-60.09,33.13-124.08,93.31-142.93l-78.99,206.14-185.77-318.35c-89.26-9.97-142.99-109.4-146.04-191.77l97.54,67.22,212.7,374.19,7.26,5.51Z"/>
  <path fill="#fff" d="M798.93,132.5l-176.41,469.81c-4.1,7.58-16.87,3.17-24.22,3.9l180.94-478.92,19.7,5.21Z"/>
  <path fill="#fff" d="M538.64,312.99c-42.74-70.97-8.76-154.9,47.34-206.16,34.05,68.9,3.38,154.02-47.34,206.16Z"/>
  <path fill="#fff" d="M308.38,291.95c59.62-14.89,158.57-20.85,195.25,38.42-61.12,46.62-153.34,21.85-195.25-38.42Z"/>
  <path fill="#fff" d="M500.7,447.39c39.67-1.05,69.95,7.4,96.57,37.91-52.7,53.17-142.91,36.37-192.58-12.02,28.41-17.03,62.97-25.02,96.01-25.89Z"/>
</svg>
