<svg id="Layer_2" data-name="Layer 2" xmlns="http://www.w3.org/2000/svg" viewBox="0 0 505.73 547.42"><defs><style>.cls-1{fill:none;stroke:#fff;stroke-miterlimit:10;stroke-width:18px;}</style></defs><title>Logo_glass</title><path class="cls-1" d="M280,112.94c-102.79,0-186.12-21.86-186.12-48.82S177.21,15.29,280,15.29,466.12,37.15,466.12,64.12,382.79,112.94,280,112.94ZM93.88,64.12S48.32,229.29,37.3,319A153.32,153.32,0,0,0,45,389.4c20.19,56.41,78,155.31,235,155.31m0,0c157,0,214.77-98.9,235-155.31A153.32,153.32,0,0,0,522.7,319c-11-89.73-56.58-254.9-56.58-254.9" transform="translate(-27.14 -6.29)"/><path class="cls-1" d="M280,280" transform="translate(-27.14 -6.29)"/><path class="cls-1" d="M493,280" transform="translate(-27.14 -6.29)"/><path class="cls-1" d="M464.52,307.94" transform="translate(-27.14 -6.29)"/><path class="cls-1" d="M493,280" transform="translate(-27.14 -6.29)"/><path class="cls-1" d="M280,280" transform="translate(-27.14 -6.29)"/><path class="cls-1" d="M464.52,307.94" transform="translate(-27.14 -6.29)"/><path class="cls-1" d="M464.52,252.06" transform="translate(-27.14 -6.29)"/><path class="cls-1" d="M493,280" transform="translate(-27.14 -6.29)"/><path class="cls-1" d="M60.57,335.56a137.53,137.53,0,0,0,8,42.9C86.7,429.23,138.71,518.24,280,518.24M61.57,315.12m65.88-80.58M280,280m184.52-27.94M112.49,85.7m335,0M493,280c2.23,12.56,4.09,24.44,5.4,35.12a138,138,0,0,1-7,63.34C473.3,429.23,421.29,518.24,280,518.24m152.55-283.7M280,280" transform="translate(-27.14 -6.29)"/><path class="cls-1" d="M432.55,325.46" transform="translate(-27.14 -6.29)"/><path class="cls-1" d="M280,280" transform="translate(-27.14 -6.29)"/><path class="cls-1" d="M233,252.06" transform="translate(-27.14 -6.29)"/><path class="cls-1" d="M373.12,266.85s-53,53.3-93.12,13.15" transform="translate(-27.14 -6.29)"/><path class="cls-1" d="M432.55,234.54" transform="translate(-27.14 -6.29)"/><path class="cls-1" d="M458,190" transform="translate(-27.14 -6.29)"/><path class="cls-1" d="M425.52,325.46" transform="translate(-27.14 -6.29)"/><path class="cls-1" d="M292.39,318" transform="translate(-27.14 -6.29)"/><path class="cls-1" d="M280.17,280.23c-49.06-49.06-77.15-61.56-109.89-61.56C105,218.67,60.57,271,60.57,335.56" transform="translate(-27.14 -6.29)"/><path class="cls-1" d="M355.81,271" transform="translate(-27.14 -6.29)"/><path class="cls-1" d="M323.39,406.45" transform="translate(-27.14 -6.29)"/><path class="cls-1" d="M280.17,280.23c79.14,88.43,159.12,67.56,159.12,67.56S493,341.85,493,280" transform="translate(-27.14 -6.29)"/><path class="cls-1" d="M373.12,266.85c33.3-33.31,59.43-32.31,59.43-32.31C489.2,234.54,493,280,493,280" transform="translate(-27.14 -6.29)"/></svg>
