<?xml version="1.0" encoding="utf-8"?>
<!-- Generator: Adobe Illustrator 24.0.2, SVG Export Plug-In . SVG Version: 6.00 Build 0)  -->
<svg version="1.1"
	 id="Layer_1" shape-rendering="geometricPrecision" text-rendering="geometricPrecision" image-rendering="optimizeQuality"
	 xmlns="http://www.w3.org/2000/svg" xmlns:xlink="http://www.w3.org/1999/xlink" x="0px" y="0px" viewBox="0 0 512 512"
	 style="enable-background:new 0 0 512 512;" xml:space="preserve">
<path d="M38.3,16h174.3c12.3,0,22.3,10,22.3,22.3v174.3c0,12.2-10.1,22.3-22.3,22.3H38.3c-12.2,0-22.3-10-22.3-22.3V38.3
	C16,26,26,16,38.3,16z M299.4,277.1h174.3c12.2,0,22.3,10.1,22.3,22.3v174.3c0,12.2-10.1,22.3-22.3,22.3H299.4
	c-6.1,0-11.7-2.5-15.7-6.5c-4.1-4.1-6.6-9.7-6.6-15.7V299.4C277.1,287.1,287.1,277.1,299.4,277.1z M299.4,16h174.3
	c12.2,0,22.3,10.1,22.3,22.3v174.3c0,12.2-10.1,22.3-22.3,22.3H299.4c-12.2,0-22.3-10-22.3-22.3V38.3C277.1,26,287.1,16,299.4,16z
	 M38.3,277.1h174.3c12.3,0,22.3,10,22.3,22.3v174.3c0,12.2-10.1,22.3-22.3,22.3H38.3C26.1,496,16,485.9,16,473.7V299.4
	C16,287.1,26,277.1,38.3,277.1z"/>
</svg>
