<?xml version="1.0" encoding="UTF-8"?>
<svg id="Layer_1" xmlns="http://www.w3.org/2000/svg" version="1.1" viewBox="0 0 1024 1024">
  <!-- Generator: Adobe Illustrator 29.6.1, SVG Export Plug-In . SVG Version: 2.1.1 Build 9)  -->
  <defs></defs>
  <path fill="currentColor" d="M113.26,0l-17.48,21.26,99.91,91.38c-51.28,107.72,155.04,127.43,138.87,18.93-7.3-48.99-79.17-59.99-116-40.28L113.26,0ZM912.28,159.2H353.54c-26.96,82.51-154.02,84.27-181.58,1.84l-64.31-1.83,95.34,99.38,619.75-.18,89.54-99.21ZM807,276.51H219.69l-1.52,3.01,269.21,291.8c2.42,6.55,4.48,13.35,5.25,20.32,8.16,74.3,5.13,224.07.12,300.83-6.1,93.4-131.76,105.44-200.53,125.83-2.06.61-4.72,3.64-5.59,5.69h457.21c-.87-2.05-3.53-5.08-5.59-5.69-70.16-20.81-153.42-25.1-196.69-96.59-5.37-115.28-7.89-234.81,1.16-349.25l264.29-295.95Z"/>
  <path fill="currentColor" d="M807,276.51l-264.29,295.95c-9.05,114.44-6.53,233.97-1.16,349.25,43.27,71.49,126.53,75.78,196.69,96.59,2.06.61,4.72,3.64,5.59,5.69h-457.21c.87-2.05,3.53-5.08,5.59-5.69,68.77-20.4,194.43-32.43,200.53-125.83,5.01-76.76,8.05-226.53-.12-300.83-.77-6.98-2.83-13.77-5.25-20.32L218.16,279.52l1.52-3.01h587.31Z"/>
  <path fill="currentColor" d="M912.28,159.2l-89.54,99.21-619.75.18-95.34-99.38,64.31,1.83c27.56,82.43,154.62,80.67,181.58-1.84h558.73Z"/>
  <path fill="currentColor" d="M113.26,0l105.3,91.28c36.83-19.7,108.7-8.7,116,40.28,16.17,108.5-190.14,88.79-138.87-18.93L95.78,21.26,113.26,0Z"/>
</svg>