<?xml version="1.0" encoding="UTF-8"?>
<svg id="Layer_1" xmlns="http://www.w3.org/2000/svg" version="1.1" viewBox="0 0 1024 1024">
  <!-- Generator: Adobe Illustrator 29.6.1, SVG Export Plug-In . SVG Version: 2.1.1 Build 9)  -->
  <defs></defs>
  <path fill="currentColor" d="M528.26,0l-31.76,3.78v188.31c-46.08-8.76-90.66-25.16-128.55-52.94,13.52,47.3,47.28,92.6,88.12,119.84,6.26,4.17,39.52,20.07,40.42,23.11l-.18,48.97c-129.15,14.15-127.19,158.4.17,172.64.06,10.7-3.87,41.38,12.84,42.29,1.36.07,16.86-8.9,17.41-9.82,4.31-7.17-.55-22.78,2.19-31.09,132.71-15.32,130.45-160.01-.66-175.36v-43.86c43,8.66,89.24-30.19,89.24-73.36v-25.71l-2.42-3.83c-25.75,13.19-58.35,17.16-86.83,11.39V0ZM425.1,541.95c-121.37,9.04-108.78,181.67,23.55,167.24,109.09-11.89,90.23-175.71-23.55-167.24ZM526.95,689.53c63.58,48.04,177.78-3.02,147.24-89-20.78-58.51-102.69-73.11-150.46-39.34,23.15,40.45,24.87,86.67,3.23,128.34ZM528.25,733.6c-.75-.78,1.35-11.24-1.39-16.01-9.58-16.74-37.83-5.38-30.36,16.01-123.91,11.31-118.57,147.26-.1,163.43l16.75,126.96,15.76-124.12c114.13-7.37,142.81-126.07,23.55-162.5-4.77-1.46-23.36-2.89-24.21-3.77Z"/>
  <path fill="currentColor" d="M528.26,0v194.37c28.47,5.77,61.08,1.79,86.83-11.39l2.42,3.83v25.71c0,43.17-46.24,82.02-89.24,73.36v43.86c131.11,15.35,133.36,160.04.66,175.36-2.74,8.31,2.13,23.92-2.19,31.09-.55.91-16.05,9.89-17.41,9.82-16.72-.92-12.79-31.59-12.84-42.29-127.36-14.24-129.32-158.49-.17-172.64l.18-48.97c-.9-3.03-34.16-18.93-40.42-23.11-40.84-27.23-74.6-72.53-88.12-119.84,37.89,27.78,82.47,44.18,128.55,52.94V3.78l31.76-3.78ZM441.62,383.02c-34.67,8.38-8.38,96.21,20.91,70.81,16.95-14.7,6.01-70.16-20.91-70.81Z"/>
  <path fill="currentColor" d="M528.25,733.6c.85.88,19.44,2.32,24.21,3.77,119.26,36.43,90.58,155.13-23.55,162.5l-15.76,124.12-16.75-126.96c-118.46-16.17-123.8-152.12.1-163.43-7.47-21.4,20.78-32.75,30.36-16.01,2.73,4.77.63,15.22,1.39,16.01ZM595.56,785.7c-23.5-.26-29.05,67.59-6.09,70.52,27.15,2.93,29.86-70.26,6.09-70.52Z"/>
  <path fill="currentColor" d="M425.1,541.95c113.78-8.47,132.63,155.35,23.55,167.24-132.33,14.43-144.91-158.2-23.55-167.24Z"/>
  <path fill="currentColor" d="M526.95,689.53c21.64-41.67,19.92-87.89-3.23-128.34,47.77-33.77,129.68-19.18,150.46,39.34,30.54,85.99-83.66,137.05-147.24,89Z"/>
  <path fill="currentColor" d="M441.62,383.02c26.92.65,37.86,56.12,20.91,70.81-29.29,25.39-55.58-62.44-20.91-70.81Z"/>
</svg>