<svg id="Layer_2" data-name="Layer 2" xmlns="http://www.w3.org/2000/svg" viewBox="0 0 560 560"><defs><style>.cls-1{fill:none;stroke:#fff;stroke-miterlimit:10;stroke-width:26px;}</style></defs><title>LOGO_favicon</title><path class="cls-1" d="M280,112.94c-102.79,0-186.12-21.86-186.12-48.82S177.21,15.29,280,15.29,466.12,37.15,466.12,64.12,382.79,112.94,280,112.94ZM93.88,64.12S48.32,229.29,37.3,319A153.32,153.32,0,0,0,45,389.4c20.19,56.41,78,155.31,235,155.31m0,0c157,0,214.77-98.9,235-155.31A153.32,153.32,0,0,0,522.7,319c-11-89.73-56.58-254.9-56.58-254.9"/><path class="cls-1" d="M87.42,337.83a120.67,120.67,0,0,0,7,37.65C110.36,420,156,498.16,280,498.16M88.3,319.89m57.82-70.72M280,289.07m162-24.53M112.49,85.7m335,0M467,289.07c2,11,3.6,21.44,4.75,30.82a121.14,121.14,0,0,1-6.12,55.59C449.65,420,404,498.16,280,498.16m133.89-249M280,289.07"/><path class="cls-1" d="M361.73,277.53S315.24,324.3,280,289.07"/><path class="cls-1" d="M280.15,289.27c-43-43.06-67.71-54-96.44-54-57.34,0-96.29,45.93-96.29,102.59"/><path class="cls-1" d="M280.15,289.27c69.46,77.61,139.65,59.29,139.65,59.29S467,343.35,467,289.07"/><path class="cls-1" d="M361.73,277.53c29.23-29.23,52.16-28.36,52.16-28.36,49.71,0,53.07,39.9,53.07,39.9"/></svg>