<?xml version="1.0" encoding="UTF-8"?>
<svg id="Layer_1" xmlns="http://www.w3.org/2000/svg" version="1.1" viewBox="0 0 1024 1024">
  <!-- Generator: Adobe Illustrator 29.6.1, SVG Export Plug-In . SVG Version: 2.1.1 Build 9)  -->
  <defs></defs>
  <path fill="currentColor" d="M447.48,196.76c1.32-2.15,3-2.08,5.19-2.33,15.91-1.87,41.75-.58,58.79-.58,17.04,0,42.88-1.28,58.79.58,2.19.26,3.87.19,5.19,2.33v57.2c0,22.96,63.75,61.14,81.31,76.76,37.98,33.78,64.54,76.07,67.58,128.14-16.09,157.92-28.88,316.36-46.5,474.05-2.04,18.27-2.25,57.88-11.69,72.61-4.04,6.3-11.95,13.63-19.39,15.33-83.83-.28-170.39,5.9-254.27,1.68-14.33-.72-22.57-1.2-32.33-12.83-13.51-16.11-12.68-55.71-15.04-76.79-17.62-157.69-30.41-316.13-46.5-474.05,3.03-52.06,29.6-94.35,67.58-128.14,17.55-15.62,81.31-53.8,81.31-76.76v-57.2ZM355.64,725.9l.08-86.62c1.57-70.08-32.03-168.01,2.69-232.02,24.81-45.73,67.11-62.77,102.64-96.06,22.9-21.45,34.09-47.85,30.16-79.88-.16-1.29,0-2.62-.73-3.79-1.74-2.49-16.08-2.7-18.17,1.59-1.74,3.57-1.27,22.93-2.93,30.19-8.08,35.29-58.7,63.91-85.15,86.47-81.9,69.83-61.81,161.43-49.46,257.23,4.5,34.91,9.49,84.75,17.86,117.62.53,2.09-.02,4.69,3,5.27ZM575.08,814.37c1.21-1.07,3.86-13.04,4.47-15.86,14.44-66.86,27.44-143.03,37.57-210.82,1.23-8.26,7.63-31.78-1.07-35.62h-209.18c-7.76,3.42-3.72,18.43-2.8,25.31,7.17,53.36,18.87,110.68,28.7,163.98,4.45,24.13,9.38,48.42,14.57,72.4,1.5,2.11,8.64,2.37,11.36,2.54,29.34,1.88,77.91,2.26,107-.01,3.22-.25,6.38-.73,9.37-1.91Z"/>
  <polygon fill="currentColor" points="573.93 74.07 573.93 174.18 571.68 176.44 451.25 176.44 448.99 174.18 448.99 74.07 573.93 74.07"/>
  <path fill="currentColor" d="M453.2,2.26c28.18-3.19,83.74-2.68,112.52-.51,11.75.89,21.76,3.23,28.1,14.05,9.57,16.32,3.52,34.61-14.71,40.11l-136.55-.25c-29.7-12.92-20.79-49.84,10.64-53.4Z"/>
</svg>